<svg width="17" height="17" viewBox="0 0 17 17" fill="none" xmlns="http://www.w3.org/2000/svg">
<path d="M12.0214 3.33101V3.83101H12.5214H15.8604C15.9496 3.83101 16.0349 3.86636 16.0976 3.9289C16.1602 3.99139 16.1952 4.0759 16.1952 4.16376C16.1952 4.25162 16.1602 4.33613 16.0976 4.39863C16.0349 4.46116 15.9496 4.49651 15.8604 4.49651H14.9681H14.5026L14.4693 4.96082L13.7456 15.0721L13.7456 15.0722C13.7246 15.3659 13.5929 15.641 13.3765 15.842C13.1601 16.0431 12.8752 16.1551 12.579 16.155H4.11536C3.81918 16.1551 3.53422 16.0431 3.31782 15.842C3.10145 15.641 2.96971 15.3659 2.94875 15.0722L2.94875 15.0722L2.22668 4.9609L2.19352 4.49651H1.72795H0.83476C0.745588 4.49651 0.660311 4.46116 0.597623 4.39863C0.534976 4.33613 0.5 4.25162 0.5 4.16376C0.5 4.0759 0.534976 3.99139 0.597623 3.9289C0.660311 3.86636 0.745588 3.83101 0.83476 3.83101H4.1738H4.6738V3.33101V1.6655C4.6738 1.35678 4.79672 1.06046 5.01592 0.841794C5.23515 0.623086 5.53275 0.5 5.84332 0.5H10.8519C11.1624 0.5 11.46 0.623085 11.6793 0.841794C11.8985 1.06046 12.0214 1.35678 12.0214 1.6655V3.33101ZM5.34332 3.33101V3.83101H5.84332H10.8519H11.3519V3.33101V1.6655V1.1655H10.8519H5.84332H5.34332V1.6655V3.33101ZM3.40081 4.49651H2.86374L2.90209 5.03222L3.61748 15.0252L3.65071 15.4895H4.1162H12.5798H13.0453L13.0785 15.0252L13.7939 5.03222L13.8323 4.49651H13.2952H3.40081Z" fill="#6C3886" stroke="#6C3886"/>
</svg>
