<svg width="35" height="45" viewBox="0 0 35 45" fill="none" xmlns="http://www.w3.org/2000/svg">
<path id="Vector" d="M21.875 0H4.375C3.21468 0 2.10188 0.474106 1.28141 1.31802C0.460936 2.16193 0 3.30653 0 4.5V40.5C0 42.9975 1.94687 45 4.375 45H30.625C33.0531 45 35 42.9975 35 40.5V13.5L21.875 0ZM30.625 40.5H4.375V4.5H19.6875V15.75H30.625V40.5ZM24.0625 24.75C24.0625 29.0025 19.1406 29.4075 19.1406 33.21H15.8594C15.8594 27.72 20.7812 28.125 20.7812 24.75C20.7812 22.905 19.3156 21.375 17.5 21.375C15.6844 21.375 14.2188 22.905 14.2188 24.75H10.9375C10.9375 21.0375 13.8688 18 17.5 18C21.1312 18 24.0625 21.0375 24.0625 24.75ZM19.1406 34.875V38.25H15.8594V34.875H19.1406Z" fill="black"/>
</svg>
