<svg width="68" height="68" viewBox="0 0 68 68" fill="none" xmlns="http://www.w3.org/2000/svg">
<path fill-rule="evenodd" clip-rule="evenodd" d="M12.5373 17.0001H55.4623V19.1251L55.4723 17.0001C56.5116 17.005 57.5136 17.3882 58.2909 18.0781C59.0683 18.7679 59.5678 19.7173 59.6961 20.7487L59.6996 20.7767L63.4707 54.7719C63.4707 54.7714 63.4708 54.7724 63.4707 54.7719C63.5375 55.3639 63.4793 55.9648 63.2995 56.5328C63.1195 57.1013 62.822 57.6255 62.4262 58.0714C62.0303 58.5174 61.5451 58.875 61.002 59.1211C60.4589 59.3673 59.8701 59.4964 59.2738 59.5L59.2608 59.5001H8.72582C8.12956 59.4964 7.54075 59.3673 6.99765 59.1211C6.45455 58.875 5.96932 58.5174 5.57349 58.0714C5.17767 57.6255 4.88011 57.1013 4.70014 56.5328C4.52049 55.9653 4.46205 55.3664 4.5286 54.7749C4.52871 54.7739 4.52883 54.7729 4.52894 54.7719L8.30339 20.7487C8.43169 19.7173 8.93138 18.7679 9.70872 18.0781C10.4861 17.3882 11.488 17.005 12.5273 17.0001L12.5373 17.0001ZM55.4533 21.2501H12.5463C12.5402 21.2503 12.5344 21.2527 12.5298 21.2567C12.5257 21.2604 12.5228 21.2652 12.5216 21.2705L8.75196 55.2501H59.2477L55.4781 21.2706C55.4768 21.2652 55.474 21.2604 55.4699 21.2567C55.4653 21.2527 55.4594 21.2503 55.4533 21.2501Z" fill="white"/>
<path fill-rule="evenodd" clip-rule="evenodd" d="M34 10.6251C31.7457 10.6251 29.5837 11.5206 27.9896 13.1147C26.3955 14.7087 25.5 16.8707 25.5 19.1251V27.6251C25.5 28.7987 24.5486 29.7501 23.375 29.7501C22.2014 29.7501 21.25 28.7987 21.25 27.6251V19.1251C21.25 15.7436 22.5933 12.5005 24.9844 10.1094C27.3755 7.71836 30.6185 6.37506 34 6.37506C37.3815 6.37506 40.6245 7.71836 43.0156 10.1094C45.4067 12.5005 46.75 15.7436 46.75 19.1251V27.6251C46.75 28.7987 45.7986 29.7501 44.625 29.7501C43.4514 29.7501 42.5 28.7987 42.5 27.6251V19.1251C42.5 16.8707 41.6045 14.7087 40.0104 13.1147C38.4163 11.5206 36.2543 10.6251 34 10.6251Z" fill="white"/>
</svg>
