<svg width="22" height="22" viewBox="0 0 22 22" fill="none" xmlns="http://www.w3.org/2000/svg">
<path d="M6.44996 0.166992H15.55C19.0166 0.166992 21.8333 2.98366 21.8333 6.45033V15.5503C21.8333 17.2168 21.1713 18.815 19.9929 19.9933C18.8146 21.1717 17.2164 21.8337 15.55 21.8337H6.44996C2.98329 21.8337 0.166626 19.017 0.166626 15.5503V6.45033C0.166626 4.78388 0.828618 3.18569 2.00697 2.00734C3.18533 0.828984 4.78352 0.166992 6.44996 0.166992ZM6.23329 2.33366C5.19895 2.33366 4.20697 2.74455 3.47558 3.47594C2.74418 4.20733 2.33329 5.19931 2.33329 6.23366V15.767C2.33329 17.9228 4.07746 19.667 6.23329 19.667H15.7666C16.801 19.667 17.7929 19.2561 18.5243 18.5247C19.2557 17.7933 19.6666 16.8013 19.6666 15.767V6.23366C19.6666 4.07783 17.9225 2.33366 15.7666 2.33366H6.23329ZM16.6875 3.95866C17.0466 3.95866 17.391 4.10133 17.645 4.35528C17.899 4.60924 18.0416 4.95368 18.0416 5.31283C18.0416 5.67197 17.899 6.01641 17.645 6.27037C17.391 6.52432 17.0466 6.66699 16.6875 6.66699C16.3283 6.66699 15.9839 6.52432 15.7299 6.27037C15.476 6.01641 15.3333 5.67197 15.3333 5.31283C15.3333 4.95368 15.476 4.60924 15.7299 4.35528C15.9839 4.10133 16.3283 3.95866 16.6875 3.95866ZM11 5.58366C12.4365 5.58366 13.8143 6.15434 14.8301 7.17016C15.8459 8.18599 16.4166 9.56374 16.4166 11.0003C16.4166 12.4369 15.8459 13.8147 14.8301 14.8305C13.8143 15.8463 12.4365 16.417 11 16.417C9.56337 16.417 8.18562 15.8463 7.1698 14.8305C6.15398 13.8147 5.58329 12.4369 5.58329 11.0003C5.58329 9.56374 6.15398 8.18599 7.1698 7.17016C8.18562 6.15434 9.56337 5.58366 11 5.58366ZM11 7.75033C10.138 7.75033 9.31135 8.09273 8.70186 8.70223C8.09237 9.31172 7.74996 10.1384 7.74996 11.0003C7.74996 11.8623 8.09237 12.6889 8.70186 13.2984C9.31135 13.9079 10.138 14.2503 11 14.2503C11.8619 14.2503 12.6886 13.9079 13.2981 13.2984C13.9075 12.6889 14.25 11.8623 14.25 11.0003C14.25 10.1384 13.9075 9.31172 13.2981 8.70223C12.6886 8.09273 11.8619 7.75033 11 7.75033Z" fill="black"/>
</svg>
