<svg width="22" height="21" viewBox="0 0 22 21" fill="none" xmlns="http://www.w3.org/2000/svg">
<path d="M11.1082 17.0958L10.9998 17.2042L10.8807 17.0958C5.73484 12.4267 2.33317 9.33917 2.33317 6.20833C2.33317 4.04167 3.95817 2.41667 6.12484 2.41667C7.79317 2.41667 9.41817 3.5 9.99234 4.97333H12.0073C12.5815 3.5 14.2065 2.41667 15.8748 2.41667C18.0415 2.41667 19.6665 4.04167 19.6665 6.20833C19.6665 9.33917 16.2648 12.4267 11.1082 17.0958ZM15.8748 0.25C13.9898 0.25 12.1807 1.1275 10.9998 2.50333C9.819 1.1275 8.00984 0.25 6.12484 0.25C2.78817 0.25 0.166504 2.86083 0.166504 6.20833C0.166504 10.2925 3.84984 13.64 9.429 18.6992L10.9998 20.1292L12.5707 18.6992C18.1498 13.64 21.8332 10.2925 21.8332 6.20833C21.8332 2.86083 19.2115 0.25 15.8748 0.25Z" fill="black"/>
</svg>
