<svg width="18" height="24" viewBox="0 0 18 24" fill="none" xmlns="http://www.w3.org/2000/svg">
<path id="Vector" d="M9 0C12.7237 0 15.75 3.04 15.75 6.8C15.75 11.8971 9 19.4286 9 19.4286C9 19.4286 2.25 11.8971 2.25 6.8C2.25 3.04 5.27625 0 9 0ZM9 4.57143C8.40326 4.57143 7.83097 4.81224 7.40901 5.2409C6.98705 5.66955 6.75 6.25093 6.75 6.85714C6.75 7.46335 6.98705 8.04473 7.40901 8.47339C7.83097 8.90204 8.40326 9.14286 9 9.14286C9.59674 9.14286 10.169 8.90204 10.591 8.47339C11.0129 8.04473 11.25 7.46335 11.25 6.85714C11.25 6.25093 11.0129 5.66955 10.591 5.2409C10.169 4.81224 9.59674 4.57143 9 4.57143ZM18 19.4286C18 21.9543 13.9725 24 9 24C4.0275 24 0 21.9543 0 19.4286C0 17.9543 1.3725 16.64 3.49875 15.8057L4.21875 16.8457C3.00375 17.36 2.25 18.0686 2.25 18.8571C2.25 20.4343 5.27625 21.7143 9 21.7143C12.7237 21.7143 15.75 20.4343 15.75 18.8571C15.75 18.0686 14.9963 17.36 13.7812 16.8457L14.5012 15.8057C16.6275 16.64 18 17.9543 18 19.4286Z" fill="black"/>
</svg>
