<svg width="22" height="22" viewBox="0 0 22 22" fill="none" xmlns="http://www.w3.org/2000/svg">
<path d="M7.79329 21.3353C8.83329 21.6495 9.88413 21.8337 11 21.8337C13.8731 21.8337 16.6286 20.6923 18.6603 18.6606C20.6919 16.629 21.8333 13.8735 21.8333 11.0003C21.8333 9.57767 21.5531 8.16895 21.0087 6.85459C20.4642 5.54023 19.6663 4.34597 18.6603 3.34C17.6543 2.33403 16.4601 1.53606 15.1457 0.991631C13.8313 0.447205 12.4226 0.166992 11 0.166992C9.5773 0.166992 8.16858 0.447205 6.85422 0.991631C5.53986 1.53606 4.3456 2.33403 3.33964 3.34C1.30799 5.37165 0.166626 8.12715 0.166626 11.0003C0.166626 15.6045 3.05913 19.5587 7.14329 21.1187C7.04579 20.2737 6.94829 18.8762 7.14329 17.912L8.38913 12.5603C8.38913 12.5603 8.07496 11.932 8.07496 10.9353C8.07496 9.44032 9.00663 8.32449 10.0683 8.32449C11 8.32449 11.4333 9.00699 11.4333 9.88449C11.4333 10.8162 10.8158 12.1487 10.5016 13.427C10.3175 14.4887 11.065 15.4203 12.1483 15.4203C14.0766 15.4203 15.5716 13.362 15.5716 10.4587C15.5716 7.85866 13.7083 6.08199 11.0325 6.08199C7.97746 6.08199 6.17913 8.35699 6.17913 10.7512C6.17913 11.6828 6.48246 12.6253 6.98079 13.2428C7.07829 13.3078 7.07829 13.3945 7.04579 13.557L6.73163 14.7378C6.73163 14.922 6.61246 14.987 6.42829 14.857C5.04163 14.2503 4.23996 12.2787 4.23996 10.6862C4.23996 7.26283 6.66663 4.15366 11.3466 4.15366C15.0733 4.15366 17.9766 6.82949 17.9766 10.3828C17.9766 14.1095 15.6691 17.0995 12.365 17.0995C11.3141 17.0995 10.285 16.5362 9.91663 15.8753L9.19079 18.4428C8.94163 19.3745 8.25913 20.6203 7.79329 21.3678V21.3353Z" fill="black"/>
</svg>
