<svg width="19" height="18" viewBox="0 0 19 18" fill="none" xmlns="http://www.w3.org/2000/svg">
<path d="M8.77582 0.5427C9.06377 -0.0707044 9.93623 -0.0707036 10.2242 0.542701L12.2543 4.86743C12.3676 5.10869 12.5935 5.27771 12.857 5.31819L17.4622 6.026C18.1056 6.12489 18.3678 6.90984 17.913 7.3756L14.5322 10.8382C14.3547 11.02 14.2741 11.2752 14.315 11.5259L15.1057 16.3737C15.2133 17.0329 14.5135 17.5258 13.929 17.2026L9.88714 14.9675C9.64624 14.8343 9.35376 14.8343 9.11286 14.9675L5.07096 17.2026C4.48651 17.5258 3.78674 17.0329 3.89426 16.3737L4.68498 11.5259C4.72587 11.2752 4.64527 11.02 4.46781 10.8382L1.08696 7.3756C0.632195 6.90984 0.89443 6.12489 1.53783 6.026L6.14304 5.31819C6.40647 5.27771 6.63244 5.10869 6.74569 4.86743L8.77582 0.5427Z" fill="#FFC700"/>
</svg>
