<svg width="22" height="22" viewBox="0 0 22 22" fill="none" xmlns="http://www.w3.org/2000/svg">
<path d="M18.6375 3.31956C17.6443 2.31631 16.4613 1.52086 15.1574 0.979612C13.8536 0.438361 12.455 0.162139 11.0433 0.167057C5.12832 0.167057 0.307492 4.98789 0.307492 10.9029C0.307492 12.7987 0.805825 14.6404 1.73749 16.2654L0.220825 21.8337L5.90833 20.3387C7.47916 21.1946 9.24499 21.6496 11.0433 21.6496C16.9583 21.6496 21.7792 16.8287 21.7792 10.9137C21.7792 8.04289 20.6633 5.34539 18.6375 3.31956ZM11.0433 19.8296C9.43999 19.8296 7.86916 19.3962 6.49333 18.5837L6.16832 18.3887L2.78833 19.2771L3.68749 15.9837L3.47083 15.6479C2.58005 14.2254 2.10706 12.5812 2.10583 10.9029C2.10583 5.98456 6.11416 1.97622 11.0325 1.97622C13.4158 1.97622 15.6583 2.90789 17.3375 4.59789C18.1689 5.42552 18.8278 6.40994 19.276 7.4941C19.7242 8.57826 19.9527 9.74059 19.9483 10.9137C19.97 15.8321 15.9617 19.8296 11.0433 19.8296ZM15.94 13.1562C15.6692 13.0262 14.3475 12.3762 14.1092 12.2787C13.86 12.1921 13.6867 12.1487 13.5025 12.4087C13.3183 12.6796 12.8092 13.2862 12.6575 13.4596C12.5058 13.6437 12.3433 13.6654 12.0725 13.5246C11.8017 13.3946 10.935 13.1021 9.91666 12.1921C9.11499 11.4771 8.58416 10.5996 8.42166 10.3287C8.26999 10.0579 8.39999 9.91706 8.54082 9.77622C8.65999 9.65706 8.81166 9.46206 8.94166 9.31039C9.07166 9.15872 9.12583 9.03956 9.21249 8.86622C9.29916 8.68206 9.25583 8.53039 9.19083 8.40039C9.12582 8.27039 8.58416 6.94872 8.36749 6.40706C8.15083 5.88706 7.92333 5.95206 7.76083 5.94122H7.24083C7.05666 5.94122 6.77499 6.00622 6.52583 6.27706C6.28749 6.54789 5.59416 7.19789 5.59416 8.51956C5.59416 9.84122 6.55833 11.1196 6.68833 11.2929C6.81833 11.4771 8.58416 14.1854 11.2708 15.3446C11.91 15.6262 12.4083 15.7887 12.7983 15.9079C13.4375 16.1137 14.0225 16.0812 14.4883 16.0162C15.0083 15.9404 16.0808 15.3662 16.2975 14.7379C16.525 14.1096 16.525 13.5787 16.4492 13.4596C16.3733 13.3404 16.2108 13.2862 15.94 13.1562Z" fill="black"/>
</svg>
