<svg width="32" height="50" viewBox="0 0 32 50" fill="none" xmlns="http://www.w3.org/2000/svg">
<mask id="path-1-inside-1_1_490" fill="white">
<path d="M14.3489 0.0686531C11.8068 0.432713 9.77308 1.04784 8.34823 1.87011C4.41264 4.15489 1.89561 7.15524 0.665348 11.0343C0.150645 12.66 0 13.6016 0 15.1645C0 16.8091 0.213413 18.2841 0.665348 19.7466C1.1926 21.4288 1.64454 22.3641 2.66767 23.8266C3.04428 24.3601 3.42717 24.9125 3.52132 25.0506C3.61547 25.1887 4.11762 25.9105 4.6386 26.6512C6.45889 29.2624 6.77901 29.7645 7.22467 30.7186C8.28546 33.0096 8.78761 35.0685 8.9257 37.6859L8.99475 39.0166L11.9512 39.0103C13.5769 39.004 16.7655 38.9789 19.0315 38.9601L23.1554 38.9224L23.1867 37.7612C23.2558 35.1877 23.7705 32.8339 24.7371 30.6872C25.1828 29.708 25.2393 29.6013 25.8544 28.7414C26.1494 28.3334 26.5135 27.8187 26.6767 27.5927C26.8336 27.3667 27.3169 26.6888 27.7437 26.0863C28.1706 25.4837 28.792 24.6049 29.1247 24.1404C29.8842 23.0796 30.2168 22.4959 30.6311 21.5041C31.2965 19.9098 31.6605 18.6168 31.8928 16.9848C32.0622 15.855 32.0308 14.7126 31.7986 13.0932C31.5664 11.4988 31.24 10.5447 30.2419 8.54242C29.4511 6.9481 28.3463 5.55463 26.7081 4.09212C24.3731 2.00193 21.379 0.595913 18.2657 0.131424C17.3304 -0.0129433 15.1398 -0.0443306 14.3489 0.0686531ZM18.1088 1.83245C20.9082 2.17141 23.6198 3.61509 26.2561 6.16977C28.384 8.22858 29.5766 10.5259 30.0725 13.5011C30.4051 15.5097 30.1478 18.0393 29.4071 19.9412C29.087 20.7635 28.3589 22.1381 27.9446 22.6968C25.9297 25.4146 24.3417 27.7936 23.3876 29.5197C22.716 30.7437 21.9502 33.0096 21.6301 34.7169C21.5359 35.2254 21.3853 36.9201 21.4167 37.0771C21.4292 37.1461 21.2597 37.1712 20.5442 37.1838L19.6466 37.2026L19.634 31.3651L19.6152 25.5339L19.9604 25.3895C20.2241 25.2828 20.45 25.1071 20.9333 24.6112L21.561 23.9772L21.8058 24.0274C22.7913 24.2346 23.6575 23.042 23.2244 22.0753C22.6909 20.9078 20.902 20.2739 20.1676 20.9957C20.0106 21.1526 19.7094 21.7113 19.7094 21.8557C19.7094 21.8933 19.8851 21.9686 20.0922 22.0314C20.4877 22.1381 21.0275 22.4582 21.0275 22.5838C21.0275 22.6716 20.8392 22.8851 20.7639 22.8851C20.7325 22.8851 20.607 22.816 20.4751 22.7344C20.1362 22.5084 19.7219 22.4206 19.4081 22.5022C19.0942 22.59 18.8118 22.816 18.7051 23.0796C18.636 23.2428 18.5984 23.2617 18.4603 23.2303C18.3724 23.2052 18.272 23.1675 18.2406 23.1361C18.0899 22.9855 18.5732 22.3578 19.0126 22.1381C19.2198 22.0314 19.27 21.9686 19.27 21.8305C19.27 21.0899 19.9793 20.3618 20.8266 20.2174C21.084 20.1735 21.1028 20.1609 21.0652 20.004C20.971 19.6211 20.9522 19.075 21.0275 18.8114C21.0714 18.6419 21.2033 18.4285 21.379 18.2402C21.6364 17.9703 21.6552 17.9201 21.6552 17.6125C21.6552 17.4305 21.6866 17.1668 21.7305 17.0287C21.8058 16.7777 21.8058 16.7777 21.5673 16.5705C21.2472 16.2943 20.8706 16.2316 20.4689 16.3948L20.1801 16.5203L20.1362 16.9158C20.1111 17.1292 20.0609 17.4054 20.0232 17.5246C19.9353 17.782 19.4897 18.3657 19.3767 18.3657C19.339 18.3657 19.2574 18.2841 19.1947 18.1837C19.1005 18.0079 19.1005 17.9954 19.2198 17.8824C19.4081 17.7192 19.6466 17.1794 19.6466 16.9158C19.6466 16.4513 19.3955 15.9742 19.0126 15.7106C18.8934 15.6227 18.8871 15.5913 18.9561 15.3905C18.9938 15.2649 19.0566 15.1645 19.0942 15.1645C19.1256 15.1645 19.3516 15.3591 19.5901 15.5976L20.0295 16.037L20.2617 15.9366C20.3935 15.8801 20.676 15.8361 20.9082 15.8299C21.2409 15.8299 21.3727 15.8612 21.5987 15.9931C21.7493 16.0809 21.9251 16.2128 21.9941 16.2881L22.1071 16.4136L22.308 16.263C22.5528 16.0747 23.0235 15.8612 23.193 15.855C23.4441 15.8487 23.4692 15.7859 23.3499 15.334L23.2432 14.9009L22.6532 14.8946C22.1071 14.8821 22.0318 14.8632 21.6677 14.6686C21.2095 14.4176 20.9585 14.1414 20.7639 13.6769C20.6321 13.3505 20.6258 13.3442 20.3559 13.3442C20.2052 13.3442 19.9102 13.2877 19.6968 13.2124C19.3453 13.0931 19.27 13.0931 18.9122 13.1622C18.5984 13.225 18.4352 13.225 18.0962 13.1622C17.5941 13.068 17.5815 13.0806 17.3869 13.7083C17.0856 14.6749 17.3179 15.7671 17.9832 16.5266C18.1401 16.7023 18.2657 16.8781 18.2657 16.9158C18.2657 16.9471 18.1715 17.079 18.0585 17.2045C17.1358 18.2151 17.0354 19.5772 17.8075 20.7007L18.0334 21.0271L17.8075 21.4414C17.6882 21.6673 17.5438 22.0251 17.4873 22.2323C17.299 22.9729 17.3869 23.9584 17.7008 24.4919C17.8075 24.6802 17.8137 25.0506 17.8326 30.9571L17.8577 37.2277H16.1002H14.3426L14.3113 31.1705L14.2799 25.1133L14.5121 24.743C15.1461 23.7575 15.1649 22.5838 14.5686 21.4665L14.3301 21.0208L14.4996 20.7949C14.7506 20.4622 15.0017 19.8659 15.0645 19.4516C15.1837 18.7298 14.8824 17.8196 14.3238 17.2233L14.0476 16.9283L14.3113 16.627C15.1021 15.7294 15.3344 14.4678 14.9013 13.476L14.7255 13.0806L14.5058 13.1245C13.9346 13.225 13.7714 13.2312 13.376 13.1559C12.9994 13.0869 12.9303 13.0869 12.742 13.1873C12.6228 13.2501 12.3529 13.3128 12.1395 13.3317L11.7503 13.3631L11.6185 13.6581C11.4302 14.0786 11.0285 14.5117 10.6456 14.7126C10.3631 14.8632 10.2564 14.8821 9.72914 14.8821H9.12656L9.01986 15.3214C8.90687 15.7859 8.93198 15.8487 9.19561 15.855C9.36508 15.855 9.93 16.1249 10.0367 16.2504C10.1497 16.3948 10.3129 16.3822 10.4573 16.2253C10.8088 15.8361 11.5808 15.7106 12.1081 15.9491L12.3843 16.0684L12.4847 15.9177C12.6604 15.6416 12.9115 15.3842 13.1124 15.2712L13.307 15.1582L13.3948 15.3654C13.4827 15.5662 13.4764 15.5725 13.2128 15.8236C12.8801 16.1312 12.742 16.4513 12.742 16.9032C12.742 17.2673 12.8864 17.6188 13.1124 17.8259C13.2756 17.9766 13.2756 18.0581 13.1249 18.2465L12.9994 18.3971L12.7797 18.1837C12.4972 17.9075 12.2964 17.4305 12.2524 16.9409C12.2273 16.5705 12.2148 16.5454 12.0076 16.4513C11.5243 16.219 11.0724 16.2755 10.7397 16.6082L10.564 16.7902L10.6518 17.1229C10.7021 17.3049 10.7272 17.5623 10.7083 17.7004C10.6832 17.9075 10.7083 17.964 10.859 18.0958C11.3737 18.5226 11.5055 19.1817 11.2607 20.0354C11.2293 20.1546 11.2607 20.1735 11.5934 20.2425C12.2964 20.3806 12.8048 20.8011 13.0308 21.4226C13.0747 21.5544 13.1124 21.7364 13.1186 21.8305C13.1186 21.9686 13.1689 22.0314 13.3572 22.1256C13.6585 22.2825 13.966 22.6026 14.0916 22.9039C14.1857 23.1361 14.1857 23.1361 14.0162 23.2052C13.8217 23.2742 13.6836 23.2428 13.6836 23.1173C13.6836 22.9604 13.2505 22.5775 12.9931 22.5084C12.855 22.4708 12.6353 22.4582 12.5035 22.4833C12.2462 22.5273 11.8319 22.7219 11.7691 22.8223C11.7126 22.9164 11.5996 22.8976 11.4239 22.7595L11.267 22.634L11.5118 22.4143C11.744 22.2072 12.0641 22.0628 12.447 21.9812C12.6542 21.931 12.6667 21.7803 12.4972 21.41C12.1708 20.6882 11.2732 20.481 10.3443 20.9204C9.26465 21.4351 8.78133 22.3955 9.1705 23.2617C9.42785 23.8266 10.0493 24.153 10.6205 24.0212C10.8527 23.9647 10.859 23.971 11.1163 24.3036C11.4553 24.743 12.0265 25.264 12.2901 25.377L12.491 25.4586L12.5035 30.0721C12.5161 32.6079 12.5223 35.2568 12.5223 35.9535V37.2277L11.6373 37.2465L10.7523 37.2654L10.7083 36.4619C10.5765 33.8821 9.91117 31.6789 8.45494 29.005C7.82097 27.8375 7.67033 27.599 6.82923 26.4566C5.61779 24.8121 5.373 24.4794 4.99011 23.9521C4.8018 23.6948 4.47541 23.2554 4.27455 22.9792C2.5233 20.6442 1.61943 17.5686 1.82657 14.6561C1.99604 12.2144 2.68022 10.2058 4.03602 8.17837C5.0466 6.65309 6.75391 5.0211 8.47377 3.92265C11.3548 2.08981 14.5372 1.39935 18.1088 1.83245Z"/>
</mask>
<path d="M14.3489 0.0686531C11.8068 0.432713 9.77308 1.04784 8.34823 1.87011C4.41264 4.15489 1.89561 7.15524 0.665348 11.0343C0.150645 12.66 0 13.6016 0 15.1645C0 16.8091 0.213413 18.2841 0.665348 19.7466C1.1926 21.4288 1.64454 22.3641 2.66767 23.8266C3.04428 24.3601 3.42717 24.9125 3.52132 25.0506C3.61547 25.1887 4.11762 25.9105 4.6386 26.6512C6.45889 29.2624 6.77901 29.7645 7.22467 30.7186C8.28546 33.0096 8.78761 35.0685 8.9257 37.6859L8.99475 39.0166L11.9512 39.0103C13.5769 39.004 16.7655 38.9789 19.0315 38.9601L23.1554 38.9224L23.1867 37.7612C23.2558 35.1877 23.7705 32.8339 24.7371 30.6872C25.1828 29.708 25.2393 29.6013 25.8544 28.7414C26.1494 28.3334 26.5135 27.8187 26.6767 27.5927C26.8336 27.3667 27.3169 26.6888 27.7437 26.0863C28.1706 25.4837 28.792 24.6049 29.1247 24.1404C29.8842 23.0796 30.2168 22.4959 30.6311 21.5041C31.2965 19.9098 31.6605 18.6168 31.8928 16.9848C32.0622 15.855 32.0308 14.7126 31.7986 13.0932C31.5664 11.4988 31.24 10.5447 30.2419 8.54242C29.4511 6.9481 28.3463 5.55463 26.7081 4.09212C24.3731 2.00193 21.379 0.595913 18.2657 0.131424C17.3304 -0.0129433 15.1398 -0.0443306 14.3489 0.0686531ZM18.1088 1.83245C20.9082 2.17141 23.6198 3.61509 26.2561 6.16977C28.384 8.22858 29.5766 10.5259 30.0725 13.5011C30.4051 15.5097 30.1478 18.0393 29.4071 19.9412C29.087 20.7635 28.3589 22.1381 27.9446 22.6968C25.9297 25.4146 24.3417 27.7936 23.3876 29.5197C22.716 30.7437 21.9502 33.0096 21.6301 34.7169C21.5359 35.2254 21.3853 36.9201 21.4167 37.0771C21.4292 37.1461 21.2597 37.1712 20.5442 37.1838L19.6466 37.2026L19.634 31.3651L19.6152 25.5339L19.9604 25.3895C20.2241 25.2828 20.45 25.1071 20.9333 24.6112L21.561 23.9772L21.8058 24.0274C22.7913 24.2346 23.6575 23.042 23.2244 22.0753C22.6909 20.9078 20.902 20.2739 20.1676 20.9957C20.0106 21.1526 19.7094 21.7113 19.7094 21.8557C19.7094 21.8933 19.8851 21.9686 20.0922 22.0314C20.4877 22.1381 21.0275 22.4582 21.0275 22.5838C21.0275 22.6716 20.8392 22.8851 20.7639 22.8851C20.7325 22.8851 20.607 22.816 20.4751 22.7344C20.1362 22.5084 19.7219 22.4206 19.4081 22.5022C19.0942 22.59 18.8118 22.816 18.7051 23.0796C18.636 23.2428 18.5984 23.2617 18.4603 23.2303C18.3724 23.2052 18.272 23.1675 18.2406 23.1361C18.0899 22.9855 18.5732 22.3578 19.0126 22.1381C19.2198 22.0314 19.27 21.9686 19.27 21.8305C19.27 21.0899 19.9793 20.3618 20.8266 20.2174C21.084 20.1735 21.1028 20.1609 21.0652 20.004C20.971 19.6211 20.9522 19.075 21.0275 18.8114C21.0714 18.6419 21.2033 18.4285 21.379 18.2402C21.6364 17.9703 21.6552 17.9201 21.6552 17.6125C21.6552 17.4305 21.6866 17.1668 21.7305 17.0287C21.8058 16.7777 21.8058 16.7777 21.5673 16.5705C21.2472 16.2943 20.8706 16.2316 20.4689 16.3948L20.1801 16.5203L20.1362 16.9158C20.1111 17.1292 20.0609 17.4054 20.0232 17.5246C19.9353 17.782 19.4897 18.3657 19.3767 18.3657C19.339 18.3657 19.2574 18.2841 19.1947 18.1837C19.1005 18.0079 19.1005 17.9954 19.2198 17.8824C19.4081 17.7192 19.6466 17.1794 19.6466 16.9158C19.6466 16.4513 19.3955 15.9742 19.0126 15.7106C18.8934 15.6227 18.8871 15.5913 18.9561 15.3905C18.9938 15.2649 19.0566 15.1645 19.0942 15.1645C19.1256 15.1645 19.3516 15.3591 19.5901 15.5976L20.0295 16.037L20.2617 15.9366C20.3935 15.8801 20.676 15.8361 20.9082 15.8299C21.2409 15.8299 21.3727 15.8612 21.5987 15.9931C21.7493 16.0809 21.9251 16.2128 21.9941 16.2881L22.1071 16.4136L22.308 16.263C22.5528 16.0747 23.0235 15.8612 23.193 15.855C23.4441 15.8487 23.4692 15.7859 23.3499 15.334L23.2432 14.9009L22.6532 14.8946C22.1071 14.8821 22.0318 14.8632 21.6677 14.6686C21.2095 14.4176 20.9585 14.1414 20.7639 13.6769C20.6321 13.3505 20.6258 13.3442 20.3559 13.3442C20.2052 13.3442 19.9102 13.2877 19.6968 13.2124C19.3453 13.0931 19.27 13.0931 18.9122 13.1622C18.5984 13.225 18.4352 13.225 18.0962 13.1622C17.5941 13.068 17.5815 13.0806 17.3869 13.7083C17.0856 14.6749 17.3179 15.7671 17.9832 16.5266C18.1401 16.7023 18.2657 16.8781 18.2657 16.9158C18.2657 16.9471 18.1715 17.079 18.0585 17.2045C17.1358 18.2151 17.0354 19.5772 17.8075 20.7007L18.0334 21.0271L17.8075 21.4414C17.6882 21.6673 17.5438 22.0251 17.4873 22.2323C17.299 22.9729 17.3869 23.9584 17.7008 24.4919C17.8075 24.6802 17.8137 25.0506 17.8326 30.9571L17.8577 37.2277H16.1002H14.3426L14.3113 31.1705L14.2799 25.1133L14.5121 24.743C15.1461 23.7575 15.1649 22.5838 14.5686 21.4665L14.3301 21.0208L14.4996 20.7949C14.7506 20.4622 15.0017 19.8659 15.0645 19.4516C15.1837 18.7298 14.8824 17.8196 14.3238 17.2233L14.0476 16.9283L14.3113 16.627C15.1021 15.7294 15.3344 14.4678 14.9013 13.476L14.7255 13.0806L14.5058 13.1245C13.9346 13.225 13.7714 13.2312 13.376 13.1559C12.9994 13.0869 12.9303 13.0869 12.742 13.1873C12.6228 13.2501 12.3529 13.3128 12.1395 13.3317L11.7503 13.3631L11.6185 13.6581C11.4302 14.0786 11.0285 14.5117 10.6456 14.7126C10.3631 14.8632 10.2564 14.8821 9.72914 14.8821H9.12656L9.01986 15.3214C8.90687 15.7859 8.93198 15.8487 9.19561 15.855C9.36508 15.855 9.93 16.1249 10.0367 16.2504C10.1497 16.3948 10.3129 16.3822 10.4573 16.2253C10.8088 15.8361 11.5808 15.7106 12.1081 15.9491L12.3843 16.0684L12.4847 15.9177C12.6604 15.6416 12.9115 15.3842 13.1124 15.2712L13.307 15.1582L13.3948 15.3654C13.4827 15.5662 13.4764 15.5725 13.2128 15.8236C12.8801 16.1312 12.742 16.4513 12.742 16.9032C12.742 17.2673 12.8864 17.6188 13.1124 17.8259C13.2756 17.9766 13.2756 18.0581 13.1249 18.2465L12.9994 18.3971L12.7797 18.1837C12.4972 17.9075 12.2964 17.4305 12.2524 16.9409C12.2273 16.5705 12.2148 16.5454 12.0076 16.4513C11.5243 16.219 11.0724 16.2755 10.7397 16.6082L10.564 16.7902L10.6518 17.1229C10.7021 17.3049 10.7272 17.5623 10.7083 17.7004C10.6832 17.9075 10.7083 17.964 10.859 18.0958C11.3737 18.5226 11.5055 19.1817 11.2607 20.0354C11.2293 20.1546 11.2607 20.1735 11.5934 20.2425C12.2964 20.3806 12.8048 20.8011 13.0308 21.4226C13.0747 21.5544 13.1124 21.7364 13.1186 21.8305C13.1186 21.9686 13.1689 22.0314 13.3572 22.1256C13.6585 22.2825 13.966 22.6026 14.0916 22.9039C14.1857 23.1361 14.1857 23.1361 14.0162 23.2052C13.8217 23.2742 13.6836 23.2428 13.6836 23.1173C13.6836 22.9604 13.2505 22.5775 12.9931 22.5084C12.855 22.4708 12.6353 22.4582 12.5035 22.4833C12.2462 22.5273 11.8319 22.7219 11.7691 22.8223C11.7126 22.9164 11.5996 22.8976 11.4239 22.7595L11.267 22.634L11.5118 22.4143C11.744 22.2072 12.0641 22.0628 12.447 21.9812C12.6542 21.931 12.6667 21.7803 12.4972 21.41C12.1708 20.6882 11.2732 20.481 10.3443 20.9204C9.26465 21.4351 8.78133 22.3955 9.1705 23.2617C9.42785 23.8266 10.0493 24.153 10.6205 24.0212C10.8527 23.9647 10.859 23.971 11.1163 24.3036C11.4553 24.743 12.0265 25.264 12.2901 25.377L12.491 25.4586L12.5035 30.0721C12.5161 32.6079 12.5223 35.2568 12.5223 35.9535V37.2277L11.6373 37.2465L10.7523 37.2654L10.7083 36.4619C10.5765 33.8821 9.91117 31.6789 8.45494 29.005C7.82097 27.8375 7.67033 27.599 6.82923 26.4566C5.61779 24.8121 5.373 24.4794 4.99011 23.9521C4.8018 23.6948 4.47541 23.2554 4.27455 22.9792C2.5233 20.6442 1.61943 17.5686 1.82657 14.6561C1.99604 12.2144 2.68022 10.2058 4.03602 8.17837C5.0466 6.65309 6.75391 5.0211 8.47377 3.92265C11.3548 2.08981 14.5372 1.39935 18.1088 1.83245Z" fill="#733789" stroke="#733789" stroke-width="2" mask="url(#path-1-inside-1_1_490)"/>
<path d="M13.1501 5.18459C12.9807 5.25363 12.6857 5.42311 12.5036 5.5612C12.2212 5.77461 12.1521 5.80599 12.0391 5.74323C11.8132 5.62397 10.9846 5.59886 10.7273 5.70557C10.131 5.95036 9.79202 6.52783 9.79202 7.29361V7.70788L9.43423 7.66395C8.36089 7.54469 7.58256 8.20376 7.49468 9.30221C7.47585 9.54073 7.48841 9.85457 7.51979 10.0052C7.57628 10.2375 7.57001 10.2814 7.48213 10.3128C6.91094 10.5011 6.2958 11.0032 5.96941 11.5493C5.66184 12.0578 5.51747 12.6352 5.50492 13.3445C5.49236 14.2484 5.70578 14.9326 6.16399 15.4473C6.45272 15.7799 6.79795 15.9306 7.32521 15.9682C8.16631 16.0247 8.62452 15.6356 8.61197 14.8886C8.61197 14.6752 8.58058 14.4241 8.54292 14.3237C8.48015 14.1668 8.48643 14.1479 8.58058 14.1793C9.64137 14.512 10.2251 14.4932 10.721 14.104C10.834 14.0161 11.016 13.7651 11.1227 13.5454L11.3173 13.1499L11.1604 12.9805C10.9219 12.7294 10.7335 12.3151 10.7335 12.0389C10.7335 11.8443 10.6896 11.7565 10.4762 11.5556C10.0556 11.1476 9.905 10.8275 9.86734 10.294C9.84223 9.88596 9.86106 9.7918 10.0054 9.49051C10.2502 8.99464 10.7084 8.64942 11.3487 8.48622C11.5998 8.41717 11.6311 8.39206 11.7316 8.09077C11.8634 7.69533 12.1082 7.36893 12.4471 7.12414C12.7673 6.89189 12.8865 6.89189 12.9744 7.12414C13.0372 7.30617 13.0309 7.31872 12.7296 7.55096C11.832 8.22886 11.9324 9.39008 12.9116 9.79808C13.0999 9.87968 13.1125 9.90479 13.0748 10.0931C13.056 10.2061 13.0309 10.3128 13.0183 10.3191C12.9807 10.3756 12.5476 10.1872 12.309 10.0178C12.0517 9.82947 11.6751 9.26455 11.6751 9.05741C11.6751 8.9256 11.5244 8.91932 11.1666 9.04486C10.6457 9.22689 10.3569 9.62233 10.3569 10.1433C10.3569 10.5576 10.5201 10.8651 10.9219 11.2292L11.2482 11.5179L11.2545 11.9636C11.2671 12.3967 11.2734 12.4218 11.5119 12.6352C11.7316 12.8424 11.7755 12.8549 12.0768 12.8298C12.2902 12.811 12.4973 12.7357 12.6982 12.6101L12.9995 12.4218L13.2882 12.5725C13.8343 12.8486 14.531 12.7105 14.9139 12.2586C15.0081 12.1456 15.1587 11.9008 15.2466 11.7125C15.3784 11.4238 15.4035 11.2794 15.4035 10.8338C15.3973 10.2124 15.2466 9.75414 14.9014 9.30221L14.688 9.01975L14.9642 8.61175C15.347 8.05311 15.4726 7.65767 15.4726 7.00488C15.4726 6.52783 15.4537 6.42113 15.2654 6.05079C14.8574 5.21597 13.9912 4.85819 13.1501 5.18459Z" fill="#8BC6C9"/>
<path d="M17.9204 5.24075C17.4748 5.44788 17.3367 5.59225 17.0793 6.08812C16.9036 6.41452 16.8848 6.50867 16.8848 7.01082C16.8848 7.65734 17.0542 8.16577 17.4497 8.68047L17.6757 8.98176L17.4371 9.35209C17.0919 9.88563 16.9475 10.325 16.9475 10.8272C16.9475 12.183 18.0585 13.0931 19.0817 12.5721L19.3579 12.4278L19.7031 12.6349C19.9604 12.7918 20.1236 12.842 20.337 12.842C20.8455 12.842 21.0903 12.5407 21.0965 11.8879V11.4925L21.4167 11.2414C21.8309 10.9213 22.0318 10.5447 22.0318 10.1116C22.0318 9.67849 21.7431 9.28305 21.2848 9.08847C20.8204 8.88761 20.7576 8.90016 20.6383 9.25166C20.5002 9.62828 20.0358 10.1053 19.6654 10.2434C19.5148 10.2999 19.383 10.3376 19.3704 10.325C19.3579 10.3125 19.3265 10.1995 19.3014 10.0802C19.2637 9.8668 19.27 9.85424 19.4897 9.77264C19.9918 9.59062 20.3433 8.98804 20.2429 8.46706C20.1676 8.02768 19.7972 7.56946 19.3453 7.3435C19.3076 7.32467 19.4771 6.94178 19.5273 6.94178C19.8223 6.94178 20.5191 7.65734 20.6634 8.10927C20.7513 8.39173 20.7764 8.41684 21.0338 8.48589C21.9627 8.72441 22.5026 9.35209 22.5026 10.2057C22.5026 10.7142 22.264 11.2414 21.9 11.5364C21.7054 11.6934 21.6552 11.775 21.6552 11.9319C21.6552 12.2395 21.4857 12.66 21.266 12.886C21.0777 13.0806 21.0714 13.0994 21.1468 13.3379C21.2472 13.6831 21.5736 14.0911 21.8749 14.248C22.195 14.4175 23.1051 14.4238 23.532 14.2606C23.6826 14.2041 23.8144 14.1664 23.8207 14.1727C23.827 14.1853 23.8081 14.3673 23.7705 14.5807C23.6073 15.5411 24.2789 16.1813 25.233 15.9742C26.1745 15.7733 26.7897 14.882 26.8524 13.6392C26.8901 12.8609 26.7959 12.3838 26.4821 11.731C26.1934 11.1347 25.7979 10.7393 25.1828 10.4443C24.9129 10.3125 24.7999 10.2246 24.8187 10.1681C24.8376 10.1179 24.8689 9.90446 24.894 9.68477C24.9882 8.77462 24.486 7.95235 23.7014 7.72639C23.4378 7.65106 23.2307 7.63223 22.967 7.65734L22.5967 7.70128V7.39371C22.5967 6.64677 22.2075 5.9312 21.6803 5.71151C21.4167 5.59853 20.8141 5.59853 20.45 5.71151C20.1738 5.79311 20.1613 5.78683 19.9228 5.60481C19.1821 5.04616 18.567 4.93318 17.9204 5.24075Z" fill="#8BC6C9"/>
<path d="M6.02643 16.4955C5.8444 16.803 5.83184 16.8658 5.85067 17.3303C5.87578 17.958 6.04526 18.3158 6.50974 18.7426C6.81731 19.0251 7.13115 19.182 7.5517 19.2761L7.72118 19.3075L7.5266 19.703C7.04328 20.657 7.32574 21.6802 8.15428 21.9752C8.30493 22.0254 8.46185 22.0693 8.50579 22.0693C8.54972 22.0693 8.67526 21.9124 8.78825 21.7178C9.10209 21.1592 9.4787 20.8014 10.0813 20.4938C10.4579 20.2993 10.6525 20.1549 10.7466 20.0105C11.1358 19.3766 10.9098 18.5794 10.2633 18.3346C10.1064 18.2718 9.98085 18.2153 9.98085 18.2028C9.98085 18.1902 10.0373 18.0898 10.1064 17.9768C10.4014 17.4872 10.1629 16.8344 9.59168 16.5582C9.0707 16.3072 8.73803 16.2632 8.11034 16.3825C7.27552 16.5331 7.01817 16.508 6.32771 16.2067C6.24612 16.1691 6.17707 16.2319 6.02643 16.4955Z" fill="#8BC6C9"/>
<path d="M25.6725 16.3325C25.1829 16.5083 25.0072 16.5146 24.2477 16.3765C23.7581 16.2886 23.6074 16.2886 23.3187 16.3514C22.9421 16.4392 22.4588 16.7343 22.2579 16.9979C22.0884 17.2364 22.0884 17.7072 22.2642 17.9959L22.3897 18.2156L22.1198 18.3286C21.6239 18.5294 21.3603 19.0253 21.4419 19.5588C21.5109 19.9794 21.6993 20.1865 22.3144 20.5129C22.986 20.8707 23.281 21.1469 23.5509 21.6741C23.7895 22.1261 23.8459 22.1449 24.3355 21.9189C24.7122 21.7432 24.9444 21.4356 25.0448 20.9837C25.1515 20.5004 24.9821 19.7597 24.687 19.4207C24.5992 19.3203 24.6054 19.3078 24.7686 19.2764C25.2143 19.1822 25.4654 19.0755 25.7478 18.8558C26.5136 18.247 26.7459 17.3054 26.3379 16.4895C26.2437 16.3137 26.1496 16.1756 26.1244 16.1756C26.0993 16.1819 25.8985 16.2509 25.6725 16.3325Z" fill="#8BC6C9"/>
<path d="M12.6292 40.8185L10.79 40.8373L10.8089 41.7035L10.8277 42.5635H11.3173C11.5809 42.5635 13.9787 42.5509 16.6338 42.5446L21.467 42.5321V41.6533V40.7746L17.9708 40.7871C16.0438 40.7997 13.6397 40.8122 12.6292 40.8185Z" fill="#733789"/>
<path d="M10.8212 44.4339C10.8086 44.4779 10.8023 44.867 10.8086 45.3001L10.8274 46.0785L16.1502 46.0973L21.4667 46.1099V45.2311V44.3523H16.1628C11.8569 44.3523 10.8463 44.3649 10.8212 44.4339Z" fill="#733789"/>
<path d="M15.0207 47.9111L12.6167 47.93V48.8087V49.6875L16.1506 49.6749L19.6782 49.6561V48.7774V47.8986H18.5483C17.9269 47.8986 16.3389 47.9049 15.0207 47.9111Z" fill="#733789"/>
</svg>
