<svg width="50" height="44" viewBox="0 0 50 44" fill="none" xmlns="http://www.w3.org/2000/svg">
<path d="M42.4149 17.566L42.4785 17.7145L42.6401 17.7176C44.5385 17.7535 46.3467 18.5291 47.6761 19.8774C49.0055 21.2257 49.75 23.0389 49.75 24.9272C49.75 26.8156 49.0055 28.6288 47.6761 29.977C46.3467 31.3253 44.5385 32.101 42.6401 32.1369L42.4784 32.14L42.4149 32.2886C40.9622 35.688 38.5366 38.5872 35.4401 40.6252C32.3435 42.6633 28.7128 43.75 25 43.75C21.2872 43.75 17.6565 42.6633 14.5599 40.6252C11.4634 38.5872 9.03784 35.688 7.5851 32.2886L7.52157 32.14L7.35994 32.1369C5.46154 32.101 3.65333 31.3253 2.3239 29.977C0.994519 28.6288 0.25 26.8156 0.25 24.9272C0.25 23.0389 0.994519 21.2257 2.3239 19.8774C3.65333 18.5291 5.46154 17.7535 7.35994 17.7176L7.52158 17.7145L7.58511 17.5659C9.03169 14.1804 11.4434 11.2907 14.5224 9.25389C17.6014 7.21704 21.2127 6.1224 24.9102 6.10533L25.0477 6.10469L25.1208 5.9883L28.666 0.343742L31.0681 1.83768L28.4145 6.06246L28.2202 6.37188L28.579 6.44092C31.6243 7.02691 34.4784 8.34782 36.8908 10.2876C39.3032 12.2273 41.2 14.7266 42.4149 17.566ZM42.5857 29.3204L42.5862 29.3204C43.7415 29.3008 44.8427 28.8287 45.651 28.0063C46.2556 27.3939 46.6668 26.6185 46.8335 25.7759C47.0003 24.9332 46.9152 24.0605 46.589 23.2655C46.2627 22.4705 45.7097 21.7882 44.9983 21.3028C44.2869 20.8175 43.4483 20.5503 42.5862 20.534L40.5889 20.4963L39.8074 18.6678C38.5721 15.7765 36.5094 13.3109 33.8765 11.5779C31.2436 9.84481 28.1566 8.92083 25.0001 8.92083C21.8435 8.92083 18.7565 9.84481 16.1236 11.5779C13.4907 13.3109 11.4281 15.7765 10.1927 18.6677C10.1927 18.6678 10.1927 18.6678 10.1927 18.6678L9.41106 20.4963L7.41389 20.534C7.41387 20.534 7.41384 20.534 7.41382 20.534C6.25798 20.5556 5.15653 21.0276 4.3464 21.849C3.53621 22.6705 3.0821 23.7757 3.0821 24.9272C3.0821 26.0787 3.53621 27.184 4.3464 28.0055C5.15653 28.8269 6.25798 29.2989 7.41382 29.3204C7.41384 29.3204 7.41387 29.3204 7.41389 29.3204L9.41106 29.3582L10.1927 31.1867C10.1927 31.1867 10.1927 31.1867 10.1927 31.1867C11.428 34.078 13.4907 36.5437 16.1236 38.2767C18.7565 40.0098 21.8435 40.9338 25.0001 40.9338C28.1566 40.9338 31.2436 40.0098 33.8765 38.2767C36.5095 36.5437 38.5721 34.078 39.8074 31.1867C39.8074 31.1867 39.8074 31.1867 39.8074 31.1867L40.5889 29.3582L42.5857 29.3204Z" fill="#733789" stroke="white" stroke-width="0.5"/>
<path d="M16.25 20.25H19.8409V23.9605H16.25V20.25ZM30.1591 20.25H33.75V23.9605H30.1591V20.25ZM28.033 35.129C27.0712 35.5391 26.0406 35.75 25 35.75C22.8987 35.75 20.882 34.8909 19.3939 33.3593C18.657 32.6009 18.0721 31.7001 17.6729 30.7082C17.3047 29.7933 17.1013 28.8177 17.0719 27.8289H32.9281C32.8987 28.8177 32.6953 29.7933 32.3271 30.7082C31.9279 31.7001 31.343 32.6009 30.6061 33.3593C29.8692 34.1177 28.9948 34.719 28.033 35.129Z" fill="#733789" stroke="white" stroke-width="0.5"/>
</svg>
