<svg width="48" height="48" viewBox="0 0 48 48" fill="none" xmlns="http://www.w3.org/2000/svg">
<path d="M11.2082 10.3964C9.44533 11.3354 7.31173 10.6438 6.45964 8.83311L6.45939 8.83258C6.34012 8.5776 6.2617 8.39825 6.21917 8.17952C6.1778 7.96679 6.17238 7.72662 6.17236 7.3517L6.17239 7.34886C6.17648 6.98938 6.18444 6.74947 6.21924 6.54765C6.25572 6.33606 6.32006 6.17445 6.41922 5.96751L6.41921 5.96751L6.42023 5.96544C6.87637 5.0356 7.51886 4.45452 8.48736 4.11105C9.21755 3.84977 10.2562 3.90367 10.9638 4.22609L10.9638 4.22609L10.9658 4.22704C11.2398 4.35488 11.6564 4.64239 11.9114 4.87988L11.912 4.88044C13.6068 6.46869 13.2565 9.30955 11.2082 10.3964ZM11.2082 10.3964L11.0906 10.1757L11.2078 10.3966C11.2079 10.3965 11.208 10.3964 11.2082 10.3964ZM8.05962 13.3346L8.06051 13.3348C8.45775 13.4428 8.98893 13.5032 9.52604 13.5093C10.0636 13.5153 10.5872 13.4666 10.9701 13.367L10.9701 13.367L10.9717 13.3666C15.5779 12.2012 17.2691 6.63724 14.078 3.22479C12.6343 1.68608 10.5524 0.96052 8.54784 1.29961C7.41253 1.4968 6.15806 2.13982 5.32975 2.95224C3.95454 4.31175 3.34936 5.83234 3.43641 7.71016C3.57096 10.3975 5.39492 12.6208 8.05962 13.3346Z" fill="#733789" stroke="white" stroke-width="0.5"/>
<path d="M44.2318 9.25514L44.2315 9.25589C43.3431 11.8816 41.0825 13.515 38.3686 13.5073C35.9607 13.4913 33.8589 12.1626 32.8385 10.0033C32.608 9.51405 32.4707 9.14893 32.3888 8.75786C32.3066 8.36523 32.2779 7.93475 32.2778 7.31163C32.282 6.78938 32.2885 6.51719 32.3216 6.2861C32.354 6.06053 32.4126 5.86825 32.536 5.50648C33.2983 3.30731 34.9992 1.79867 37.2239 1.3394L44.2318 9.25514ZM44.2318 9.25514C44.6489 8.03509 44.6351 6.6594 44.1905 5.34931C43.8984 4.497 43.5641 3.9507 42.8778 3.21652L42.8773 3.21602M44.2318 9.25514L42.8773 3.21602M42.8773 3.21602C41.4107 1.63841 39.2586 0.921506 37.2242 1.33935L42.8773 3.21602ZM36.7541 4.35517L36.7549 4.35476C37.0769 4.18951 37.3418 4.07997 37.6253 4.0189C37.9086 3.95787 38.1963 3.94827 38.5602 3.96519L38.5611 3.96524C39.0732 3.99084 39.4044 4.05213 39.7812 4.22663C41.1884 4.87291 42.0517 6.46342 41.775 7.95645C41.2871 10.685 37.9256 11.7754 35.9759 9.82567C34.3466 8.19634 34.7366 5.3996 36.7541 4.35517Z" fill="#733789" stroke="white" stroke-width="0.5"/>
<path d="M27.2989 15.2153C27.5531 15.1324 27.9035 15.1313 28.2345 15.1754C28.5703 15.2201 28.9273 15.3167 29.2034 15.4615C29.7769 15.7533 30.3112 16.3642 30.4889 16.9534L30.489 16.9538C30.5739 17.2368 30.601 17.5946 30.5847 17.93C30.5685 18.2636 30.5079 18.6073 30.3951 18.8574L30.3949 18.8579C29.7671 20.2409 28.1465 20.8021 26.7792 20.1229L26.7786 20.1226C25.867 19.6668 25.3822 18.8628 25.3643 17.812H25.3643L25.3642 17.8096C25.3552 16.5828 26.0817 15.6092 27.2989 15.2153ZM27.2989 15.2153C27.2988 15.2153 27.2987 15.2154 27.2986 15.2154L27.3762 15.4531L27.2992 15.2152C27.2991 15.2152 27.299 15.2153 27.2989 15.2153ZM26.8947 12.5439L26.8925 12.5443C26.6079 12.6043 26.0193 12.8252 25.5991 13.0273L25.5979 13.0278C25.2821 13.1776 25.0734 13.2915 24.8783 13.4319C24.6825 13.5729 24.4924 13.7463 24.2198 14.023L24.2194 14.0233C23.5151 14.7356 23.1328 15.3672 22.8318 16.3573L22.8315 16.3583C22.7213 16.7154 22.6571 17.2069 22.6481 17.7144C22.6391 18.2216 22.6856 18.7242 22.785 19.1028L22.7851 19.103C23.4067 21.4792 25.5301 23.1152 27.9854 23.1152C28.8921 23.1152 29.5388 22.9601 30.3884 22.5553C31.3096 22.1101 32.2815 21.146 32.7343 20.2326C33.1836 19.3261 33.3326 18.6027 33.2849 17.5058C33.2217 16.0609 32.7944 15.0743 31.7682 14.0401L31.7678 14.0397C31.1204 13.3845 30.4391 12.9619 29.5651 12.6863L29.5634 12.6858C28.7644 12.4273 27.6733 12.3726 26.8947 12.5439Z" fill="#733789" stroke="white" stroke-width="0.5"/>
<path d="M5.65519 47.1152L5.17108 46.8844L5.1695 46.8836L5.1695 46.8836C4.55623 46.5964 4.19187 46.2802 3.89133 45.8069L3.89119 45.8067C3.88457 45.7963 3.87809 45.7861 3.87174 45.7761C3.74983 45.5847 3.6752 45.4676 3.61736 45.3042C3.55625 45.1315 3.51069 44.8953 3.47989 44.4667C3.41973 43.6294 3.41976 42.1345 3.41981 39.1091C3.41981 39.0193 3.41981 38.9281 3.41981 38.8356V33.0146V32.7909L3.19742 32.7662L2.75495 32.717C1.81695 32.5961 0.924425 31.9298 0.489284 31.0137L0.489056 31.0132L0.25 30.5127V24.9296V19.3321L0.425441 18.8286L0.425845 18.8275C0.981941 17.2062 2.30176 16.0366 3.91369 15.7074C3.91392 15.7074 3.91423 15.7074 3.91465 15.7073C3.91811 15.707 3.92846 15.7059 3.94892 15.7045C3.97589 15.7027 4.01258 15.7007 4.05923 15.6988C4.15233 15.6948 4.28024 15.6908 4.43962 15.6869C4.75812 15.6791 5.19824 15.6716 5.72837 15.6649C6.78841 15.6516 8.20574 15.6413 9.72418 15.6372C12.1333 15.6331 13.5235 15.6351 14.3608 15.6526C15.207 15.6702 15.4619 15.7038 15.6226 15.7507C16.3776 15.9719 17.1004 16.5552 17.4203 17.195L17.4224 17.1993L17.4225 17.1992C17.4228 17.1999 17.4239 17.2022 17.4259 17.2067C17.4285 17.2126 17.432 17.2205 17.4363 17.2309C17.4449 17.2516 17.4558 17.2791 17.469 17.3136C17.4955 17.3825 17.5298 17.4754 17.5711 17.5901C17.6536 17.8191 17.7628 18.131 17.8913 18.5037C18.1482 19.2487 18.4813 20.2337 18.8311 21.2788L5.65519 47.1152ZM5.65519 47.1152H9.5506C11.5263 47.1152 12.5067 47.1152 13.0535 47.0918C13.3261 47.0801 13.4784 47.063 13.5869 47.0406C13.6912 47.0189 13.7613 46.9913 13.8783 46.944L13.879 46.9437C14.7793 46.5836 15.5166 45.6316 15.6847 44.6077L15.685 44.606C15.6936 44.5555 15.7049 44.3652 15.7152 44.0281C15.7252 43.7018 15.7339 43.2585 15.7411 42.7214C15.7555 41.6474 15.7637 40.2016 15.7637 38.5721V33.2482H14.4082H13.0527V38.5968V44.1954V44.4454H12.8027H9.59177H6.38079H6.13079V44.1954V36.9913V30.0372H4.7753H3.16981H2.91981V29.7872V24.8225C2.91981 22.5026 2.9239 21.2526 2.94566 20.5449C2.96719 19.8446 3.00541 19.6362 3.09908 19.4324C3.30645 18.98 3.61626 18.6806 4.07579 18.4836L4.07577 18.4836L4.08018 18.4818C4.18039 18.4411 4.30477 18.4173 4.48756 18.4001C4.67263 18.3826 4.93629 18.3704 5.32541 18.3616C6.10485 18.344 7.41097 18.3399 9.6494 18.3399H14.8199H14.9998L15.057 18.5105L16.6624 23.3023L16.6625 23.3024L18.2112 27.9327L25.2775 27.9729C25.2775 27.9729 25.2776 27.9729 25.2776 27.9729C25.5381 27.9742 25.7896 27.9755 26.0324 27.9768C29.4294 27.9945 31.1273 28.0033 32.0144 28.0556C32.4829 28.0833 32.7613 28.124 32.9502 28.2028C33.1312 28.2783 33.2266 28.3912 33.2996 28.4776C33.3116 28.4919 33.3231 28.5055 33.3342 28.518L33.3353 28.5193L33.3418 28.5267C33.4378 28.6364 33.5349 28.7473 33.6073 28.9035C33.6811 29.063 33.7226 29.253 33.749 29.522C33.8006 30.0488 33.8006 30.9692 33.8006 32.7565V32.7923V36.2091V36.4591H33.5506H31.9451H30.5896V40.2023V44.1954V44.4454H30.3396H27.952H25.5643H25.3143V44.1954V40.2023V36.4591H23.9588H22.6034V40.2764C22.6034 41.4734 22.6116 42.5318 22.626 43.3233C22.6331 43.7192 22.6418 44.0472 22.6518 44.2919C22.6621 44.5459 22.6731 44.6898 22.6814 44.7339L22.6814 44.734C22.8555 45.6651 23.4527 46.4327 24.3408 46.8692L24.341 46.8693L24.8404 47.1152H27.952C29.5036 47.1152 30.2897 47.1131 30.7447 47.0898C30.9707 47.0783 31.1045 47.0619 31.2046 47.0408C31.3016 47.0202 31.374 46.9939 31.4821 46.9518C32.089 46.7039 32.7102 46.1152 33.0136 45.5009L33.26 45.0006L33.2842 42.2502L33.3089 39.4426L33.3107 39.2358L33.5141 39.1989L34.0562 39.1003C34.0564 39.1003 34.0566 39.1002 34.0568 39.1002C35.0355 38.9165 35.8239 38.3309 36.2572 37.4576C36.2573 37.4573 36.2575 37.457 36.2577 37.4566L36.4708 37.0157L36.4951 33.1038L5.65519 47.1152ZM20.3362 25.0119H26.4947C32.1177 25.0119 32.9922 25.0008 33.7282 25.3145C33.8899 25.3834 34.045 25.4679 34.2422 25.5717C34.9997 25.9669 35.8148 26.7738 36.2017 27.523M20.3362 25.0119L36.2017 27.523M20.3362 25.0119L19.0683 21.1999L20.3362 25.0119ZM36.2017 27.523L35.9796 27.6378C35.9796 27.6377 35.9795 27.6376 35.9795 27.6375L36.2017 27.523ZM36.4951 33.1036L36.7451 33.1052L36.4951 33.1036Z" fill="#733789" stroke="white" stroke-width="0.5"/>
<path d="M40.4481 15.6457L37.0112 15.6227V16.9848V18.3403H40.1533C41.7965 18.3403 42.6543 18.3422 43.1445 18.3652C43.3899 18.3767 43.5557 18.3939 43.6874 18.4223C43.8256 18.452 43.9183 18.4923 44.0131 18.5365L44.0132 18.5363L44.0226 18.5411C44.2993 18.6843 44.539 18.8953 44.72 19.181L44.7202 19.1815L44.959 19.5602L44.9975 19.6213V19.6935V24.7405V29.7875V30.0375H44.7475H42.3599H40.2222V38.5971V47.1567H41.5777H42.9332V40.2026V32.9985V32.7485H43.1832H44.2041C44.9844 32.7485 45.3016 32.7077 45.6699 32.595C46.5153 32.3306 47.2176 31.671 47.5784 30.7892C47.5785 30.7888 47.5787 30.7884 47.5789 30.788L47.7497 30.3573V24.9711C47.7497 22.5039 47.7455 21.1368 47.725 20.3266C47.7045 19.5149 47.6676 19.2839 47.6105 19.0766L47.6103 19.0762C47.2037 17.5904 46.1175 16.41 44.6538 15.8777L44.6536 15.8776L44.085 15.6702L40.4481 15.6457Z" fill="#733789" stroke="white" stroke-width="0.5"/>
</svg>
