<svg width="38" height="36" viewBox="0 0 38 36" fill="none" xmlns="http://www.w3.org/2000/svg">
<path d="M29.1151 20.2411C30.122 20.2411 31.0877 19.8411 31.7997 19.1291C32.5117 18.4171 32.9117 17.4514 32.9117 16.4445C32.9117 15.4375 32.5117 14.4719 31.7997 13.7599C31.0877 13.0479 30.122 12.6479 29.1151 12.6479C28.1082 12.6479 27.1425 13.0479 26.4305 13.7599C25.7185 14.4719 25.3185 15.4375 25.3185 16.4445C25.3185 17.4514 25.7185 18.4171 26.4305 19.1291C27.1425 19.8411 28.1082 20.2411 29.1151 20.2411ZM29.1151 18.9755C28.4438 18.9755 27.8 18.7089 27.3253 18.2342C26.8507 17.7595 26.584 17.1157 26.584 16.4445C26.584 15.7732 26.8507 15.1294 27.3253 14.6547C27.8 14.1801 28.4438 13.9134 29.1151 13.9134C29.7864 13.9134 30.4302 14.1801 30.9048 14.6547C31.3795 15.1294 31.6462 15.7732 31.6462 16.4445C31.6462 17.1157 31.3795 17.7595 30.9048 18.2342C30.4302 18.7089 29.7864 18.9755 29.1151 18.9755ZM19.6236 7.26933C19.6236 8.02452 19.3236 8.74878 18.7896 9.28278C18.2556 9.81678 17.5313 10.1168 16.7761 10.1168C16.0209 10.1168 15.2967 9.81678 14.7627 9.28278C14.2287 8.74878 13.9287 8.02452 13.9287 7.26933C13.9287 6.51414 14.2287 5.78988 14.7627 5.25588C15.2967 4.72187 16.0209 4.42188 16.7761 4.42188C17.5313 4.42188 18.2556 4.72187 18.7896 5.25588C19.3236 5.78988 19.6236 6.51414 19.6236 7.26933ZM12.0304 12.3315C12.0304 12.7054 11.9567 13.0757 11.8136 13.4211C11.6705 13.7666 11.4608 14.0805 11.1964 14.3449C10.9319 14.6093 10.618 14.8191 10.2726 14.9622C9.92711 15.1053 9.55684 15.1789 9.1829 15.1789C8.80897 15.1789 8.4387 15.1053 8.09323 14.9622C7.74776 14.8191 7.43386 14.6093 7.16945 14.3449C6.90504 14.0805 6.6953 13.7666 6.5522 13.4211C6.4091 13.0757 6.33545 12.7054 6.33545 12.3315C6.33545 11.5763 6.63545 10.852 7.16945 10.318C7.70345 9.78401 8.42771 9.48402 9.1829 9.48402C9.93809 9.48402 10.6624 9.78401 11.1964 10.318C11.7304 10.852 12.0304 11.5763 12.0304 12.3315ZM9.1829 24.0377C9.55684 24.0377 9.92711 23.964 10.2726 23.8209C10.618 23.6778 10.9319 23.4681 11.1964 23.2037C11.4608 22.9393 11.6705 22.6254 11.8136 22.2799C11.9567 21.9344 12.0304 21.5641 12.0304 21.1902C12.0304 20.8163 11.9567 20.446 11.8136 20.1005C11.6705 19.7551 11.4608 19.4412 11.1964 19.1768C10.9319 18.9124 10.618 18.7026 10.2726 18.5595C9.92711 18.4164 9.55684 18.3428 9.1829 18.3428C8.42771 18.3428 7.70345 18.6428 7.16945 19.1768C6.63545 19.7108 6.33545 20.435 6.33545 21.1902C6.33545 21.9454 6.63545 22.6697 7.16945 23.2037C7.70345 23.7377 8.42771 24.0377 9.1829 24.0377ZM18.9908 26.8851C18.9908 27.6403 18.6908 28.3646 18.1568 28.8986C17.6228 29.4326 16.8985 29.7326 16.1433 29.7326C15.3882 29.7326 14.6639 29.4326 14.1299 28.8986C13.5959 28.3646 13.2959 27.6403 13.2959 26.8851C13.2959 26.1299 13.5959 25.4057 14.1299 24.8717C14.6639 24.3377 15.3882 24.0377 16.1433 24.0377C16.8985 24.0377 17.6228 24.3377 18.1568 24.8717C18.6908 25.4057 18.9908 26.1299 18.9908 26.8851Z" fill="#733788"/>
<path d="M19.2439 35.4267C15.711 35.1687 12.2994 34.0278 9.32213 32.1085C4.97077 29.5593 1.80846 25.388 0.529197 20.5099C-0.0221748 18.3861 -0.144213 16.1736 0.17023 14.002C0.484674 11.8305 1.22928 9.74352 2.36043 7.86336C7.11504 0.0170464 17.7734 -2.30268 27.1497 2.47725C32.7421 5.33103 36.9247 10.3122 37.803 15.1706C38.0949 16.5111 38.062 17.902 37.7071 19.2273C37.3523 20.5526 36.6857 21.7738 35.763 22.7891C33.0319 25.7707 29.5074 25.7289 26.946 25.6998H26.9371C25.235 25.6694 24.1719 25.6998 23.9176 26.206C24.0061 26.5958 24.1605 26.9704 24.3731 27.3108C25.0123 28.2097 25.3333 29.2961 25.2854 30.398C25.2375 31.4999 24.8234 32.5543 24.1086 33.3943C23.5086 34.0842 22.7575 34.6264 21.9138 34.9789C21.0701 35.3314 20.1565 35.4847 19.2439 35.4267ZM17.1292 2.52281C14.6316 2.43795 12.155 3.0062 9.94424 4.17141C7.73344 5.33663 5.8649 7.05848 4.52323 9.16686C3.56591 10.7618 2.93647 12.5317 2.67179 14.3729C2.40711 16.2142 2.51251 18.0897 2.9818 19.8897C4.09462 24.1156 6.83931 27.7269 10.613 29.9305C14.8538 32.4464 20.2741 34.1068 22.1433 31.7946C23.1392 30.5696 22.8229 29.8141 22.1281 28.4764C21.7697 27.9919 21.5388 27.4251 21.4565 26.828C21.3743 26.231 21.4433 25.6229 21.6573 25.0595C22.6457 23.1105 24.8439 23.132 26.9726 23.1612C29.2948 23.1928 31.9297 23.2244 33.8976 21.0743C34.5478 20.3406 35.0152 19.4635 35.2616 18.5147C35.5079 17.5658 35.5262 16.5721 35.315 15.6148C34.5835 11.5651 30.84 7.19516 26.0032 4.73116C23.261 3.30799 20.2211 2.55344 17.1318 2.52913L17.1292 2.52281Z" fill="#733788"/>
</svg>
