<svg width="40" height="32" viewBox="0 0 40 32" fill="none" xmlns="http://www.w3.org/2000/svg">
<path d="M11 17.75H10.75V18V21.75H8.25V10.25H10.75V15V15.25H11H15H15.25V15V10.25H17.75V21.75H15.25V18V17.75H15H11ZM24.75 19V19.25H25H29H29.25V19V13V12.75H29H25H24.75V13V19ZM0.250003 28.0003V28V4C0.250003 2.9669 0.615245 2.08831 1.35278 1.35078C2.09031 0.613254 2.96812 0.248751 3.9997 0.250003H4H36C37.0331 0.250003 37.9117 0.615245 38.6492 1.35278C39.3867 2.09031 39.7512 2.96812 39.75 3.9997V4V28C39.75 29.0331 39.3848 29.9117 38.6472 30.6492C37.9097 31.3867 37.0319 31.7512 36.0003 31.75H36H4C2.9669 31.75 2.08831 31.3848 1.35078 30.6472C0.613254 29.9097 0.248751 29.0319 0.250003 28.0003ZM3.75 28V28.25H4H36H36.25V28V4V3.75H36H4H3.75V4V28Z" fill="#733788" stroke="white" stroke-width="0.5"/>
</svg>
