<svg width="40" height="26" viewBox="0 0 40 26" fill="none" xmlns="http://www.w3.org/2000/svg">
<path d="M24.4545 25.75H1C0.585787 25.75 0.25 25.4142 0.25 25V1C0.25 0.585787 0.585787 0.25 1 0.25H24.4545C24.8688 0.25 25.2045 0.585787 25.2045 1V25C25.2045 25.4142 24.8688 25.75 24.4545 25.75ZM4.63636 22.5357H20.8182C21.5085 22.5357 22.0682 21.9761 22.0682 21.2857V4.71429C22.0682 4.02393 21.5085 3.46429 20.8182 3.46429H4.63636C3.94601 3.46429 3.38636 4.02393 3.38636 4.71429V21.2857C3.38636 21.9761 3.94601 22.5357 4.63636 22.5357ZM29.3409 25V1C29.3409 0.585787 29.6767 0.25 30.0909 0.25H31.7273C32.1415 0.25 32.4773 0.585787 32.4773 1V25C32.4773 25.4142 32.1415 25.75 31.7273 25.75H30.0909C29.6767 25.75 29.3409 25.4142 29.3409 25ZM36.6136 25V1C36.6136 0.585787 36.9494 0.25 37.3636 0.25H39C39.4142 0.25 39.75 0.585787 39.75 1V25C39.75 25.4142 39.4142 25.75 39 25.75H37.3636C36.9494 25.75 36.6136 25.4142 36.6136 25ZM18.0362 18.3214H7.40897C6.79733 18.3214 6.44289 17.6287 6.80072 17.1326L8.67524 14.5341C8.97224 14.1224 9.58391 14.1185 9.88612 14.5264L10.8155 15.7809C11.3146 16.4545 12.3223 16.4556 12.8228 15.783L14.6618 13.3113C14.9638 12.9055 15.5726 12.9088 15.8701 13.3178L18.6428 17.1303C19.0033 17.626 18.6492 18.3214 18.0362 18.3214Z" fill="#733788" stroke="white" stroke-width="0.5"/>
</svg>
