<svg width="35" height="35" viewBox="0 0 35 35" fill="none" xmlns="http://www.w3.org/2000/svg">
<path d="M0.250003 18.419V18.4191C0.248652 20.547 0.678652 22.6073 1.54129 24.602C2.40483 26.5988 3.59728 28.3575 5.11929 29.8798C6.63923 31.3987 8.44734 32.5905 10.5465 33.4547C12.6453 34.3187 14.7925 34.75 16.9898 34.75H16.99C19.0826 34.7513 21.1351 34.3381 23.1489 33.5083C25.1567 32.681 27.0608 31.3708 28.8604 29.5709C30.0707 28.3576 31.0926 26.8468 31.9237 25.0337C32.7551 23.22 33.4019 21.0953 33.8617 18.6569L33.8617 18.6568C34.3229 16.2165 34.6054 13.4742 34.708 10.429C34.8086 7.44351 34.7284 4.17613 34.4669 0.626434C30.7159 0.298198 27.3219 0.184818 24.2842 0.285512C21.188 0.388144 18.4396 0.68701 16.0374 1.18062L0.250003 18.419ZM0.250003 18.419C0.250003 16.2888 0.65553 14.1829 1.46852 12.0999M0.250003 18.419L1.46852 12.0999M10.42 29.3532L10.4665 29.1709C11.4007 25.5095 12.7932 22.2988 14.6468 19.5421C16.108 17.369 17.7695 15.3743 19.6309 13.5581C17.2363 14.9862 15.0956 16.706 13.2078 18.7177C10.8532 21.2271 8.96209 23.844 7.53214 26.5682L7.36939 26.8783L7.129 26.6236C6.52094 25.9796 5.8302 24.8801 5.05509 23.3475C4.26149 21.7783 3.86875 19.9615 3.86875 17.904C3.86875 16.4615 4.16784 14.9719 4.76078 13.437C5.3604 11.8847 6.44818 10.3287 8.00922 8.76733C9.24064 7.53569 10.8183 6.5738 12.7342 5.87698C14.6386 5.18433 16.6458 4.68258 18.7553 4.37128L18.7555 4.37126C20.8618 4.06201 22.9759 3.8984 25.0975 3.88045C27.2108 3.86257 29.111 3.888 30.7978 3.95686L31.0263 3.96619L31.0374 4.19454C31.2093 7.73958 31.1753 10.7991 30.9336 13.3712C30.6925 15.9366 30.3393 18.1303 29.8724 19.9497L29.8724 19.9498C29.4064 21.7628 28.8504 23.244 28.2 24.3862C27.558 25.5138 26.9185 26.4015 26.2794 27.0407L26.2793 27.0408C24.8531 28.4659 23.3503 29.5075 21.7701 30.158C20.1972 30.8054 18.6034 31.1304 16.9902 31.1305L10.42 29.3532ZM10.42 29.3532L10.5823 29.4483M10.42 29.3532L10.5823 29.4483M10.5823 29.4483C11.597 30.0433 12.6408 30.4737 13.7133 30.738M10.5823 29.4483L13.7133 30.738M1.46852 12.0999C2.27788 10.0262 3.59539 8.07172 5.4282 6.23719L1.46852 12.0999ZM13.7133 30.738C14.7807 31.0011 15.8731 31.1319 16.9898 31.1305L13.7133 30.738ZM5.42827 6.23713C6.60703 5.05816 8.06792 4.04363 9.81499 3.19571C11.5606 2.34852 13.6336 1.67593 16.0372 1.18065L5.42827 6.23713Z" fill="#733788" stroke="white" stroke-width="0.5"/>
</svg>
