<svg width="33" height="35" viewBox="0 0 33 35" fill="none" xmlns="http://www.w3.org/2000/svg">
<path d="M26.7143 18.8409C21.4404 18.8409 17.1471 23.1233 17.0378 28.4291L13.3568 26.4773C10.8588 26.4775 8.86429 28.5013 8.86429 31.0227V33.1591H3.14286C2.37662 33.1591 1.64114 32.851 1.09838 32.3015C0.555521 31.7519 0.25 31.0058 0.25 30.2273V24.4318H2.35714C4.85525 24.4318 6.85 22.4079 6.85 19.8864C6.85 17.3648 4.85525 15.3409 2.35714 15.3409H0.25V9.54545C0.25 7.93061 1.55525 6.61364 3.14286 6.61364H9.42857H9.67857V6.36364V3.97727C9.67857 2.98775 10.0669 2.03937 10.7571 1.3406C11.4472 0.641936 12.3825 0.25 13.3571 0.25C14.3318 0.25 15.2671 0.641936 15.9572 1.3406C16.6474 2.03937 17.0357 2.98775 17.0357 3.97727V6.36364V6.61364H17.2857H23.5714C24.3377 6.61364 25.0731 6.92177 25.6159 7.47125C26.1588 8.02085 26.4643 8.7669 26.4643 9.54545V15.9091V16.1591H26.7143H29.0714C30.046 16.1591 30.9814 16.551 31.6715 17.2497C32.3617 17.9485 32.75 18.8968 32.75 19.8864C32.75 20.2379 32.7021 20.5719 32.6129 20.8827C30.9266 19.5637 28.8532 18.8435 26.7146 18.8409H26.7143ZM25.1429 27.2955H25.3929V27.0455V22.5227H28.0357V27.0455V27.2955H28.2857H32.75V29.9773H28.2857H28.0357V30.2273V34.75H25.3929V30.2273V29.9773H25.1429H20.6786V27.2955H25.1429Z" fill="#733788" stroke="white" stroke-width="0.5"/>
</svg>
