<svg width="36" height="36" viewBox="0 0 36 36" fill="none" xmlns="http://www.w3.org/2000/svg">
<g filter="url(#filter0_i_1_1863)">
<path d="M23.8186 13.84C24.1786 15.1795 23.7449 16.4605 22.8525 16.6982C21.9583 16.9377 20.9436 16.0452 20.5853 14.7057C20.2253 13.3661 20.659 12.0869 21.5514 11.8474C22.4456 11.608 23.4603 12.5005 23.8186 13.84ZM14.1153 16.4404C14.4737 17.7799 14.0417 19.0592 13.1475 19.2986C12.2551 19.538 11.2387 18.6456 10.8804 17.306C10.522 15.9665 10.954 14.6872 11.8482 14.4478C12.7406 14.2084 13.757 15.1008 14.1153 16.4404Z" fill="#733788"/>
<path fill-rule="evenodd" clip-rule="evenodd" d="M18 2.51163C13.8922 2.51163 9.9527 4.14343 7.04807 7.04807C4.14343 9.9527 2.51163 13.8922 2.51163 18C2.51163 22.1078 4.14343 26.0473 7.04807 28.9519C9.9527 31.8566 13.8922 33.4884 18 33.4884C22.1078 33.4884 26.0473 31.8566 28.9519 28.9519C31.8566 26.0473 33.4884 22.1078 33.4884 18C33.4884 13.8922 31.8566 9.9527 28.9519 7.04807C26.0473 4.14343 22.1078 2.51163 18 2.51163ZM0 18C0 8.05898 8.05898 0 18 0C27.941 0 36 8.05898 36 18C36 27.941 27.941 36 18 36C8.05898 36 0 27.941 0 18ZM26.6718 20.2437C26.7867 20.3622 26.877 20.5022 26.9378 20.6556C26.9985 20.809 27.0284 20.9729 27.0258 21.1379C27.0231 21.3029 26.988 21.4657 26.9224 21.6171C26.8567 21.7685 26.7619 21.9055 26.6433 22.0203C26.3587 22.2966 26.0573 22.5628 25.7459 22.8173L26.1109 23.5624C26.3299 24.0067 26.4592 24.4899 26.4913 24.9842C26.5234 25.4785 26.4577 25.9743 26.298 26.4432C26.1382 26.9121 25.8876 27.3449 25.5604 27.7168C25.2332 28.0887 24.8359 28.3925 24.3911 28.6107C23.9464 28.8288 23.463 28.9572 22.9686 28.9883C22.4742 29.0195 21.9786 28.9528 21.51 28.7921C21.0414 28.6315 20.6091 28.38 20.2378 28.0521C19.8665 27.7242 19.5635 27.3263 19.3462 26.8811L18.8891 25.9501C16.7825 26.3616 14.6119 26.3119 12.5263 25.8045C12.3643 25.7664 12.2114 25.6966 12.0766 25.5989C11.9418 25.5013 11.8277 25.3778 11.7411 25.2357C11.6544 25.0935 11.5969 24.9356 11.5718 24.771C11.5467 24.6065 11.5546 24.4386 11.595 24.2771C11.6354 24.1156 11.7075 23.9638 11.8071 23.8304C11.9067 23.697 12.0319 23.5848 12.1752 23.5002C12.3186 23.4157 12.4774 23.3604 12.6423 23.3378C12.8072 23.3151 12.9749 23.3254 13.1358 23.3682C15.0279 23.842 17.2013 23.8471 19.4082 23.256C21.6151 22.6649 23.4938 21.5732 24.8953 20.2169C25.1345 19.9855 25.4558 19.8585 25.7886 19.8638C26.1214 19.8692 26.4385 20.0064 26.6701 20.2454L26.6718 20.2437ZM21.3572 25.2753L21.6017 25.7743C21.7482 26.0734 22.0076 26.302 22.3227 26.4099C22.6378 26.5178 22.9829 26.496 23.282 26.3495C23.581 26.2029 23.8097 25.9436 23.9175 25.6285C24.0254 25.3134 24.0037 24.9683 23.8571 24.6692L23.6445 24.2355C22.9114 24.6433 22.1464 24.991 21.3572 25.2753Z" fill="#733788"/>
</g>
<defs>
<filter id="filter0_i_1_1863" x="0" y="0" width="36" height="40" filterUnits="userSpaceOnUse" color-interpolation-filters="sRGB">
<feFlood flood-opacity="0" result="BackgroundImageFix"/>
<feBlend mode="normal" in="SourceGraphic" in2="BackgroundImageFix" result="shape"/>
<feColorMatrix in="SourceAlpha" type="matrix" values="0 0 0 0 0 0 0 0 0 0 0 0 0 0 0 0 0 0 127 0" result="hardAlpha"/>
<feOffset dy="4"/>
<feGaussianBlur stdDeviation="2"/>
<feComposite in2="hardAlpha" operator="arithmetic" k2="-1" k3="1"/>
<feColorMatrix type="matrix" values="0 0 0 0 0 0 0 0 0 0 0 0 0 0 0 0 0 0 0.25 0"/>
<feBlend mode="normal" in2="shape" result="effect1_innerShadow_1_1863"/>
</filter>
</defs>
</svg>
