<svg width="43" height="41" viewBox="0 0 43 41" fill="none" xmlns="http://www.w3.org/2000/svg">
<path d="M37.2351 14.9526L37.1957 15.3802L37.4786 15.7033L41.6707 20.4902L37.4786 25.2772L37.1957 25.6002L37.2351 26.0278L37.8193 32.3642L31.6176 33.776L31.1986 33.8714L30.9794 34.241L27.7336 39.7145L21.8953 37.2019L21.4986 37.0311L21.1024 37.2028L15.2653 39.7322L12.0206 34.2606L11.8014 33.891L11.3824 33.7956L5.18053 32.3837L5.76489 26.0275L5.80419 25.6001L5.52139 25.2772L1.32822 20.489L5.52256 15.6823L5.80419 15.3596L5.76487 14.933L5.18096 8.59897L11.3799 7.20497L11.8006 7.11035L12.0206 6.73941L15.2664 1.26594L21.1047 3.77855L21.5 3.94869L21.8953 3.77855L27.7336 1.26594L30.9794 6.73941L31.1986 7.10901L31.6176 7.20439L37.8193 8.61623L37.2351 14.9526ZM34.9144 31.0641L35.7701 30.87L35.6889 29.9963L35.2205 24.9586L38.5536 21.1486L39.1296 20.4902L38.5536 19.8318L35.2205 16.0218L35.6889 10.9841L35.7701 10.1104L34.9143 9.91631L29.9788 8.79702L27.4032 4.44659L26.9549 3.68932L26.1468 4.03777L21.4982 6.0422L16.8502 4.05607L16.0436 3.71141L15.5968 4.46618L13.0222 8.81483L8.08905 9.91554L7.2293 10.1074L7.31114 10.9845L7.77953 16.0037L4.44491 19.8335L3.87044 20.4933L4.448 21.1504L7.77953 24.9406L7.31108 29.9966L7.23015 30.8701L8.08565 31.0641L13.0212 32.1834L15.5968 36.5338L16.0451 37.2911L16.8532 36.9426L21.5 34.939L26.1468 36.9426L26.9549 37.2911L27.4032 36.5338L29.9788 32.1834L34.9144 31.0641ZM22.4545 27.3669V29.2848H20.5455V27.3669H22.4545ZM22.4545 11.6957V21.4491H20.5455V11.6957H22.4545Z" fill="#733788" stroke="white" stroke-width="2"/>
</svg>
