<svg width="43" height="43" viewBox="0 0 43 43" fill="none" xmlns="http://www.w3.org/2000/svg">
<path d="M5.375 7.39062C5.375 5.43051 6.15365 3.55068 7.53966 2.16466C8.92568 0.778653 10.8055 1.27268e-07 12.7656 1.27268e-07C15.4074 1.27268e-07 17.7993 1.12875 19.6725 3.311C20.3927 4.16563 21.0082 5.10625 21.5 6.11137C21.9918 5.10356 22.6046 4.16294 23.3275 3.30562C25.198 1.12875 27.5899 1.27268e-07 30.2344 1.27268e-07C31.4994 -0.000234609 32.7433 0.324251 33.8471 0.942394C34.9508 1.56054 35.8774 2.45164 36.5381 3.53041C37.1989 4.60918 37.5717 5.83949 37.6208 7.10358C37.6699 8.36766 37.3938 9.6232 36.8187 10.75H38.2969C40.893 10.75 43 12.857 43 15.4531V20.8281C43 22.704 41.9008 24.3246 40.3125 25.0798V38.2969C40.3125 39.5442 39.817 40.7405 38.935 41.6225C38.053 42.5045 36.8567 43 35.6094 43H7.39062C6.14328 43 4.94702 42.5045 4.06501 41.6225C3.18301 40.7405 2.6875 39.5442 2.6875 38.2969V25.0798C1.09919 24.3219 0 22.704 0 20.8281V15.4531C0 12.857 2.107 10.75 4.70312 10.75H6.18125C5.66525 9.74219 5.375 8.6 5.375 7.39062ZM19.4844 25.5312H6.71875V38.2969C6.71875 38.6678 7.01975 38.9688 7.39062 38.9688H19.4844V25.5312ZM23.5156 25.5312V38.9688H35.6094C35.7876 38.9688 35.9585 38.898 36.0845 38.772C36.2105 38.646 36.2812 38.4751 36.2812 38.2969V25.5312H23.5156ZM23.5156 14.7812V21.5H38.2969C38.4751 21.5 38.646 21.4292 38.772 21.3032C38.898 21.1772 38.9688 21.0063 38.9688 20.8281V15.4531C38.9688 15.2749 38.898 15.104 38.772 14.978C38.646 14.852 38.4751 14.7812 38.2969 14.7812H23.5156ZM4.70312 14.7812C4.52493 14.7812 4.35404 14.852 4.22804 14.978C4.10204 15.104 4.03125 15.2749 4.03125 15.4531V20.8281C4.03125 21.199 4.33225 21.5 4.70312 21.5H19.4844V14.7812H4.70312ZM12.7656 4.03125C11.8747 4.03125 11.0202 4.38518 10.3902 5.01519C9.76018 5.64519 9.40625 6.49966 9.40625 7.39062C9.40625 8.28159 9.76018 9.13606 10.3902 9.76606C11.0202 10.3961 11.8747 10.75 12.7656 10.75H18.9711C18.3449 8.55163 17.5144 6.98481 16.6114 5.93131C15.4558 4.58219 14.1524 4.03125 12.7656 4.03125ZM24.0289 10.75H30.2344C31.1253 10.75 31.9798 10.3961 32.6098 9.76606C33.2398 9.13606 33.5938 8.28159 33.5938 7.39062C33.5938 6.49966 33.2398 5.64519 32.6098 5.01519C31.9798 4.38518 31.1253 4.03125 30.2344 4.03125C28.8476 4.03125 27.5469 4.58219 26.3912 5.93131C25.4856 6.98481 24.6551 8.55163 24.0289 10.75Z" fill="white"/>
</svg>
