<svg width="43" height="43" viewBox="0 0 43 43" fill="none" xmlns="http://www.w3.org/2000/svg">
<path d="M28.5938 14.7268L18.4386 24.9174L14.4667 20.9186C14.0624 20.5137 13.5141 20.2863 12.9424 20.2863C12.3706 20.2863 11.8223 20.5137 11.418 20.9186C11.0137 21.3234 10.7866 21.8725 10.7866 22.445C10.7866 22.7285 10.8424 23.0092 10.9507 23.2711C11.059 23.533 11.2178 23.771 11.418 23.9714L16.9143 29.4752C17.1139 29.6767 17.3513 29.8366 17.6129 29.9458C17.8746 30.0549 18.1552 30.1111 18.4386 30.1111C18.722 30.1111 19.0027 30.0549 19.2643 29.9458C19.5259 29.8366 19.7634 29.6767 19.963 29.4752L31.6425 17.7797C31.8427 17.5793 32.0015 17.3413 32.1098 17.0794C32.2182 16.8175 32.2739 16.5368 32.2739 16.2533C32.2739 15.9698 32.2182 15.6891 32.1098 15.4272C32.0015 15.1653 31.8427 14.9273 31.6425 14.7268C31.4423 14.5264 31.2047 14.3674 30.9431 14.2589C30.6816 14.1504 30.4013 14.0946 30.1182 14.0946C29.8351 14.0946 29.5547 14.1504 29.2932 14.2589C29.0316 14.3674 28.794 14.5264 28.5938 14.7268ZM21.5303 0C18.7108 0 15.919 0.556089 13.3141 1.63652C10.7093 2.71695 8.34251 4.30055 6.34886 6.29693C2.3225 10.3288 0.0605154 15.7971 0.0605154 21.4991C0.0417462 26.4635 1.75833 31.278 4.91268 35.1079L0.618729 39.4078C0.32082 39.7101 0.119012 40.094 0.0387708 40.5111C-0.0414705 40.9281 0.00344997 41.3596 0.167864 41.7512C0.346187 42.138 0.635269 42.463 0.998414 42.6851C1.36156 42.9071 1.78239 43.016 2.20749 42.9981H21.5303C27.2244 42.9981 32.6853 40.733 36.7117 36.7012C40.738 32.6693 43 27.201 43 21.4991C43 15.7971 40.738 10.3288 36.7117 6.29693C32.6853 2.26507 27.2244 0 21.5303 0ZM21.5303 38.6983H7.3817L9.37838 36.6989C9.77826 36.2961 10.0027 35.7512 10.0027 35.1832C10.0027 34.6152 9.77826 34.0703 9.37838 33.6675C6.5671 30.8555 4.81644 27.1545 4.42465 23.1949C4.03286 19.2353 5.0242 15.2622 7.22975 11.9524C9.4353 8.6427 12.7186 6.2011 16.5203 5.04362C20.322 3.88614 24.4069 4.0844 28.079 5.60462C31.7511 7.12483 34.7832 9.87295 36.6588 13.3808C38.5343 16.8886 39.1373 20.9391 38.365 24.8422C37.5926 28.7452 35.4927 32.2594 32.423 34.786C29.3533 37.3125 25.5038 38.6952 21.5303 38.6983Z" fill="white"/>
</svg>
